# xmcd
#
# Track frame offsets:
#	150
#	27531
#	41386
#	61610
#	78361
#	100761
#	114329
#	130613
#	146843
#	168210
#	187652
#	207407
#	225683
#	239864
#
# Disc length: 3522 seconds
#
# Revision: 0
# Processed by: cddbd v1.5.2PL0 Copyright (c) Steve Scherf et al.
# Submitted via: dBpowerAMP V4.0
#
DISCID=b30dc00e
DTITLE=Willie knight - Heartland
DYEAR=1900
DGENRE=Country
TTITLE0=The Long Run
TTITLE1=In The Blue
TTITLE2=The Kiss
TTITLE3=The Reason Why
TTITLE4=Heartland
TTITLE5=Lord Willin' and The Creek Don't Rise
TTITLE6=Too Scared To Know
TTITLE7=Lets Try Again
TTITLE8=Still Crazy Over You
TTITLE9=Saviours Road
TTITLE10=Never Look Back
TTITLE11=Linda My Mexican Rose
TTITLE12=Too Long On The Road
TTITLE13=Wind Of Change
EXTD=
EXTT0=
EXTT1=
EXTT2=
EXTT3=
EXTT4=
EXTT5=
EXTT6=
EXTT7=
EXTT8=
EXTT9=
EXTT10=
EXTT11=
EXTT12=
EXTT13=
PLAYORDER=
